# xmcd
#
# Track frame offsets: 
#        150
#        25130
#        36520
#        47852
#        59405
#        75225
#        88277
#        103182
#        130280
#        142647
#        160540
#        172732
#        190665
#        210517
#        238505
#
# Disc length: 3365 seconds
#
# Revision: 8
# Processed by: cddbd v1.5.2PL0 Copyright (c) Steve Scherf et al.
# Submitted via: ExactAudioCopyFreeDBPlugin 1.0
#
DISCID=bb0d230f
DTITLE=Renaud - The Meilleur Of Renaud... 1975-1985
DYEAR=1995
DGENRE=Chanson
TTITLE0=Hexagone
TTITLE1=Société Tu M'Auras Pas
TTITLE2=Laisse Béton
TTITLE3=La Chanson Du Loubard
TTITLE4=Ma Gonzesse
TTITLE5=Chanson Pour Pierrot
TTITLE6=Marche A L'Ombre
TTITLE7=Dans Mon HLM
TTITLE8=Viens Chez Moi J'Habite Chez Une Copine
TTITLE9=Banlieue Rouge
TTITLE10=Manu
TTITLE11=Mon Beauf'
TTITLE12=Dès Que Le Vent Soufflera
TTITLE13=Morgane De Toi
TTITLE14=En Cloque
EXTD=YEAR: 1995
EXTT0=
EXTT1=
EXTT2=
EXTT3=
EXTT4=
EXTT5=
EXTT6=
EXTT7=
EXTT8=
EXTT9=
EXTT10=
EXTT11=
EXTT12=
EXTT13=
EXTT14=
PLAYORDER=
